<mxfile host="65bd71144e" modified="2020-12-07T20:34:28.342Z" agent="5.0 (Macintosh; Intel Mac OS X 10_13_6) AppleWebKit/537.36 (KHTML, like Gecko) Code/1.51.1 Chrome/83.0.4103.122 Electron/9.3.3 Safari/537.36" etag="PfTL4farkjnIEaDdG0Um" version="13.10.0" type="embed">
    <diagram id="MCFZOs4Y9X9CYU-JHOSr" name="Page-1">
        <mxGraphModel dx="312" dy="485" grid="1" gridSize="10" guides="1" tooltips="1" connect="1" arrows="1" fold="1" page="1" pageScale="1" pageWidth="850" pageHeight="1100" math="0" shadow="0">
            <root>
                <mxCell id="0"/>
                <mxCell id="1" parent="0"/>
                <mxCell id="fyFqgw4MPk0h5l6gf9xv-1" value="" style="edgeStyle=orthogonalEdgeStyle;rounded=0;orthogonalLoop=1;jettySize=auto;html=1;" parent="1" source="fyFqgw4MPk0h5l6gf9xv-2" target="fyFqgw4MPk0h5l6gf9xv-3" edge="1">
                    <mxGeometry relative="1" as="geometry"/>
                </mxCell>
                <mxCell id="fyFqgw4MPk0h5l6gf9xv-2" value="START" style="rounded=1;whiteSpace=wrap;html=1;" parent="1" vertex="1">
                    <mxGeometry x="467.5" y="150" width="90" height="30" as="geometry"/>
                </mxCell>
                <mxCell id="fyFqgw4MPk0h5l6gf9xv-3" value="The user and computer should each get 2 random cards." style="rounded=1;whiteSpace=wrap;html=1;" parent="1" vertex="1">
                    <mxGeometry x="427.5" y="220" width="170" height="40" as="geometry"/>
                </mxCell>
                <mxCell id="fyFqgw4MPk0h5l6gf9xv-4" style="edgeStyle=orthogonalEdgeStyle;rounded=0;orthogonalLoop=1;jettySize=auto;html=1;exitX=0.5;exitY=1;exitDx=0;exitDy=0;entryX=0.5;entryY=0;entryDx=0;entryDy=0;" parent="1" target="fyFqgw4MPk0h5l6gf9xv-6" edge="1">
                    <mxGeometry relative="1" as="geometry">
                        <mxPoint x="515" y="260" as="sourcePoint"/>
                        <Array as="points">
                            <mxPoint x="515" y="280"/>
                        </Array>
                    </mxGeometry>
                </mxCell>
                <mxCell id="fyFqgw4MPk0h5l6gf9xv-5" value="" style="edgeStyle=orthogonalEdgeStyle;rounded=0;orthogonalLoop=1;jettySize=auto;html=1;entryX=0.5;entryY=0;entryDx=0;entryDy=0;" parent="1" source="fyFqgw4MPk0h5l6gf9xv-6" target="fyFqgw4MPk0h5l6gf9xv-45" edge="1">
                    <mxGeometry relative="1" as="geometry">
                        <mxPoint x="515.0588235294117" y="380" as="targetPoint"/>
                        <Array as="points"/>
                    </mxGeometry>
                </mxCell>
                <mxCell id="fyFqgw4MPk0h5l6gf9xv-6" value="Add up the user's and the computer's scores" style="rounded=1;whiteSpace=wrap;html=1;" parent="1" vertex="1">
                    <mxGeometry x="447.5" y="290" width="135" height="60" as="geometry"/>
                </mxCell>
                <mxCell id="fyFqgw4MPk0h5l6gf9xv-7" style="edgeStyle=orthogonalEdgeStyle;rounded=0;orthogonalLoop=1;jettySize=auto;html=1;exitX=0.5;exitY=1;exitDx=0;exitDy=0;entryX=0.5;entryY=0;entryDx=0;entryDy=0;fillColor=#f8cecc;strokeColor=#b85450;" parent="1" target="fyFqgw4MPk0h5l6gf9xv-27" edge="1">
                    <mxGeometry relative="1" as="geometry">
                        <mxPoint x="515" y="440" as="sourcePoint"/>
                    </mxGeometry>
                </mxCell>
                <mxCell id="fyFqgw4MPk0h5l6gf9xv-8" value="User: [5, 10]" style="text;html=1;align=center;verticalAlign=middle;resizable=0;points=[];autosize=1;fillColor=#dae8fc;strokeColor=#6c8ebf;fontColor=#000000;" parent="1" vertex="1">
                    <mxGeometry x="215" y="230" width="80" height="20" as="geometry"/>
                </mxCell>
                <mxCell id="fyFqgw4MPk0h5l6gf9xv-9" value="Computer: [3, 6]" style="text;html=1;align=center;verticalAlign=middle;resizable=0;points=[];autosize=1;fillColor=#dae8fc;strokeColor=#6c8ebf;fontColor=#050505;" parent="1" vertex="1">
                    <mxGeometry x="305" y="230" width="100" height="20" as="geometry"/>
                </mxCell>
                <mxCell id="fyFqgw4MPk0h5l6gf9xv-10" value="User = 15" style="text;html=1;align=center;verticalAlign=middle;resizable=0;points=[];autosize=1;fillColor=#dae8fc;strokeColor=#6c8ebf;fontColor=#080808;" parent="1" vertex="1">
                    <mxGeometry x="220" y="310" width="70" height="20" as="geometry"/>
                </mxCell>
                <mxCell id="fyFqgw4MPk0h5l6gf9xv-11" value="Computer = 9" style="text;html=1;align=center;verticalAlign=middle;resizable=0;points=[];autosize=1;fillColor=#dae8fc;strokeColor=#6c8ebf;fontColor=#030303;" parent="1" vertex="1">
                    <mxGeometry x="300" y="310" width="90" height="20" as="geometry"/>
                </mxCell>
                <mxCell id="fyFqgw4MPk0h5l6gf9xv-12" value="" style="edgeStyle=orthogonalEdgeStyle;rounded=0;orthogonalLoop=1;jettySize=auto;html=1;entryX=0.5;entryY=0;entryDx=0;entryDy=0;fillColor=#f8cecc;strokeColor=#b85450;" parent="1" source="fyFqgw4MPk0h5l6gf9xv-14" target="fyFqgw4MPk0h5l6gf9xv-51" edge="1">
                    <mxGeometry relative="1" as="geometry">
                        <mxPoint x="515" y="710" as="targetPoint"/>
                    </mxGeometry>
                </mxCell>
                <mxCell id="fyFqgw4MPk0h5l6gf9xv-13" style="edgeStyle=orthogonalEdgeStyle;rounded=0;orthogonalLoop=1;jettySize=auto;html=1;exitX=1;exitY=0.5;exitDx=0;exitDy=0;entryX=0;entryY=0.5;entryDx=0;entryDy=0;fillColor=#d5e8d4;strokeColor=#82b366;" parent="1" source="fyFqgw4MPk0h5l6gf9xv-14" target="fyFqgw4MPk0h5l6gf9xv-53" edge="1">
                    <mxGeometry relative="1" as="geometry"/>
                </mxCell>
                <mxCell id="fyFqgw4MPk0h5l6gf9xv-14" value="&lt;span&gt;Ask the user if they want &lt;br&gt;to get another card.&lt;/span&gt;" style="rhombus;whiteSpace=wrap;html=1;" parent="1" vertex="1">
                    <mxGeometry x="427.5" y="570" width="175" height="100" as="geometry"/>
                </mxCell>
                <mxCell id="fyFqgw4MPk0h5l6gf9xv-15" value="Yes" style="text;html=1;align=center;verticalAlign=middle;resizable=0;points=[];autosize=1;" parent="1" vertex="1">
                    <mxGeometry x="602.5" y="598" width="40" height="20" as="geometry"/>
                </mxCell>
                <mxCell id="fyFqgw4MPk0h5l6gf9xv-16" style="edgeStyle=orthogonalEdgeStyle;rounded=0;orthogonalLoop=1;jettySize=auto;html=1;exitX=0;exitY=0.5;exitDx=0;exitDy=0;" parent="1" source="fyFqgw4MPk0h5l6gf9xv-19" edge="1">
                    <mxGeometry relative="1" as="geometry">
                        <mxPoint x="350" y="1010" as="targetPoint"/>
                    </mxGeometry>
                </mxCell>
                <mxCell id="fyFqgw4MPk0h5l6gf9xv-17" style="edgeStyle=orthogonalEdgeStyle;rounded=0;orthogonalLoop=1;jettySize=auto;html=1;exitX=1;exitY=0.5;exitDx=0;exitDy=0;entryX=0;entryY=0.5;entryDx=0;entryDy=0;" parent="1" source="fyFqgw4MPk0h5l6gf9xv-19" target="fyFqgw4MPk0h5l6gf9xv-34" edge="1">
                    <mxGeometry relative="1" as="geometry"/>
                </mxCell>
                <mxCell id="fyFqgw4MPk0h5l6gf9xv-18" style="edgeStyle=orthogonalEdgeStyle;rounded=0;orthogonalLoop=1;jettySize=auto;html=1;exitX=0.5;exitY=1;exitDx=0;exitDy=0;entryX=0.5;entryY=0;entryDx=0;entryDy=0;" parent="1" source="fyFqgw4MPk0h5l6gf9xv-19" target="fyFqgw4MPk0h5l6gf9xv-33" edge="1">
                    <mxGeometry relative="1" as="geometry"/>
                </mxCell>
                <mxCell id="fyFqgw4MPk0h5l6gf9xv-19" value="Compare user score with &lt;br&gt;computer score to see if user&lt;br&gt;score is higher?" style="rhombus;whiteSpace=wrap;html=1;" parent="1" vertex="1">
                    <mxGeometry x="407.5" y="960" width="215" height="100" as="geometry"/>
                </mxCell>
                <mxCell id="fyFqgw4MPk0h5l6gf9xv-20" value="No" style="text;html=1;align=center;verticalAlign=middle;resizable=0;points=[];autosize=1;" parent="1" vertex="1">
                    <mxGeometry x="520" y="680" width="30" height="20" as="geometry"/>
                </mxCell>
                <mxCell id="fyFqgw4MPk0h5l6gf9xv-21" value="Answer = &quot;Yes&quot;" style="text;html=1;align=center;verticalAlign=middle;resizable=0;points=[];autosize=1;fillColor=#dae8fc;strokeColor=#6c8ebf;fontColor=#000000;" parent="1" vertex="1">
                    <mxGeometry x="245" y="595" width="100" height="20" as="geometry"/>
                </mxCell>
                <mxCell id="fyFqgw4MPk0h5l6gf9xv-22" value="User: [5, 10, 3]" style="text;html=1;align=center;verticalAlign=middle;resizable=0;points=[];autosize=1;fillColor=#dae8fc;strokeColor=#6c8ebf;fontColor=#080808;" parent="1" vertex="1">
                    <mxGeometry x="245" y="618" width="90" height="20" as="geometry"/>
                </mxCell>
                <mxCell id="fyFqgw4MPk0h5l6gf9xv-23" value="Computer: [3, 6, 10]" style="text;html=1;align=center;verticalAlign=middle;resizable=0;points=[];autosize=1;fillColor=#dae8fc;strokeColor=#6c8ebf;fontColor=#030303;" parent="1" vertex="1">
                    <mxGeometry x="235" y="750" width="120" height="20" as="geometry"/>
                </mxCell>
                <mxCell id="fyFqgw4MPk0h5l6gf9xv-24" value="No Blackjacks" style="text;html=1;align=center;verticalAlign=middle;resizable=0;points=[];autosize=1;fillColor=#dae8fc;strokeColor=#6c8ebf;fontColor=#030303;" parent="1" vertex="1">
                    <mxGeometry x="255" y="400" width="90" height="20" as="geometry"/>
                </mxCell>
                <mxCell id="fyFqgw4MPk0h5l6gf9xv-25" style="edgeStyle=orthogonalEdgeStyle;rounded=0;orthogonalLoop=1;jettySize=auto;html=1;exitX=0.5;exitY=1;exitDx=0;exitDy=0;entryX=0.5;entryY=0;entryDx=0;entryDy=0;fillColor=#f8cecc;strokeColor=#b85450;" parent="1" source="fyFqgw4MPk0h5l6gf9xv-27" target="fyFqgw4MPk0h5l6gf9xv-14" edge="1">
                    <mxGeometry relative="1" as="geometry"/>
                </mxCell>
                <mxCell id="fyFqgw4MPk0h5l6gf9xv-26" style="edgeStyle=orthogonalEdgeStyle;rounded=0;orthogonalLoop=1;jettySize=auto;html=1;exitX=1;exitY=0.5;exitDx=0;exitDy=0;fillColor=#d5e8d4;strokeColor=#82b366;" parent="1" source="fyFqgw4MPk0h5l6gf9xv-27" target="fyFqgw4MPk0h5l6gf9xv-30" edge="1">
                    <mxGeometry relative="1" as="geometry"/>
                </mxCell>
                <mxCell id="fyFqgw4MPk0h5l6gf9xv-27" value="Is user's score&amp;nbsp;over 21?" style="rhombus;whiteSpace=wrap;html=1;" parent="1" vertex="1">
                    <mxGeometry x="442.5" y="470" width="145" height="80" as="geometry"/>
                </mxCell>
                <mxCell id="fyFqgw4MPk0h5l6gf9xv-28" value="" style="edgeStyle=orthogonalEdgeStyle;rounded=0;orthogonalLoop=1;jettySize=auto;html=1;entryX=0;entryY=0.25;entryDx=0;entryDy=0;fillColor=#f8cecc;strokeColor=#b85450;" parent="1" source="fyFqgw4MPk0h5l6gf9xv-30" target="fyFqgw4MPk0h5l6gf9xv-41" edge="1">
                    <mxGeometry relative="1" as="geometry">
                        <mxPoint x="820" y="510" as="targetPoint"/>
                        <Array as="points">
                            <mxPoint x="750" y="510"/>
                            <mxPoint x="750" y="457"/>
                        </Array>
                    </mxGeometry>
                </mxCell>
                <mxCell id="fyFqgw4MPk0h5l6gf9xv-29" style="edgeStyle=orthogonalEdgeStyle;rounded=0;orthogonalLoop=1;jettySize=auto;html=1;exitX=0.5;exitY=0;exitDx=0;exitDy=0;fillColor=#d5e8d4;strokeColor=#82b366;" parent="1" source="fyFqgw4MPk0h5l6gf9xv-30" edge="1">
                    <mxGeometry relative="1" as="geometry">
                        <mxPoint x="880" y="510" as="targetPoint"/>
                        <Array as="points">
                            <mxPoint x="718" y="510"/>
                            <mxPoint x="880" y="510"/>
                        </Array>
                    </mxGeometry>
                </mxCell>
                <mxCell id="fyFqgw4MPk0h5l6gf9xv-30" value="Do they have an &quot;Ace&quot;?" style="rhombus;whiteSpace=wrap;html=1;" parent="1" vertex="1">
                    <mxGeometry x="656.25" y="472.5" width="122.5" height="75" as="geometry"/>
                </mxCell>
                <mxCell id="fyFqgw4MPk0h5l6gf9xv-31" value="No" style="text;html=1;align=center;verticalAlign=middle;resizable=0;points=[];autosize=1;" parent="1" vertex="1">
                    <mxGeometry x="520" y="545" width="30" height="20" as="geometry"/>
                </mxCell>
                <mxCell id="fyFqgw4MPk0h5l6gf9xv-32" value="Win" style="rounded=1;whiteSpace=wrap;html=1;fillColor=#d5e8d4;strokeColor=#82b366;fontColor=#050505;" parent="1" vertex="1">
                    <mxGeometry x="265" y="995" width="80" height="30" as="geometry"/>
                </mxCell>
                <mxCell id="fyFqgw4MPk0h5l6gf9xv-33" value="Draw" style="rounded=1;whiteSpace=wrap;html=1;fillColor=#fff2cc;strokeColor=#d6b656;fontColor=#050505;" parent="1" vertex="1">
                    <mxGeometry x="475" y="1100" width="80" height="30" as="geometry"/>
                </mxCell>
                <mxCell id="fyFqgw4MPk0h5l6gf9xv-34" value="Lose" style="rounded=1;whiteSpace=wrap;html=1;fillColor=#f8cecc;strokeColor=#b85450;fontColor=#050505;" parent="1" vertex="1">
                    <mxGeometry x="690" y="995" width="80" height="30" as="geometry"/>
                </mxCell>
                <mxCell id="fyFqgw4MPk0h5l6gf9xv-35" value="User score&amp;nbsp;&lt;br&gt;&lt;br&gt;higher" style="text;html=1;align=center;verticalAlign=middle;resizable=0;points=[];autosize=1;" parent="1" vertex="1">
                    <mxGeometry x="340" y="985" width="80" height="50" as="geometry"/>
                </mxCell>
                <mxCell id="fyFqgw4MPk0h5l6gf9xv-36" value="User score&amp;nbsp;&lt;br&gt;&lt;br&gt;lower" style="text;html=1;align=center;verticalAlign=middle;resizable=0;points=[];autosize=1;" parent="1" vertex="1">
                    <mxGeometry x="610" y="985" width="80" height="50" as="geometry"/>
                </mxCell>
                <mxCell id="fyFqgw4MPk0h5l6gf9xv-37" value="Same score" style="text;html=1;align=center;verticalAlign=middle;resizable=0;points=[];autosize=1;" parent="1" vertex="1">
                    <mxGeometry x="516.25" y="1060" width="80" height="20" as="geometry"/>
                </mxCell>
                <mxCell id="fyFqgw4MPk0h5l6gf9xv-38" value="Computer = 19" style="text;html=1;align=center;verticalAlign=middle;resizable=0;points=[];autosize=1;fillColor=#dae8fc;strokeColor=#6c8ebf;fontColor=#080808;" parent="1" vertex="1">
                    <mxGeometry x="90" y="1005" width="100" height="20" as="geometry"/>
                </mxCell>
                <mxCell id="fyFqgw4MPk0h5l6gf9xv-39" value="User = 18" style="text;html=1;align=center;verticalAlign=middle;resizable=0;points=[];autosize=1;fillColor=#dae8fc;strokeColor=#6c8ebf;fontColor=#000000;" parent="1" vertex="1">
                    <mxGeometry x="105" y="1035" width="70" height="20" as="geometry"/>
                </mxCell>
                <mxCell id="fyFqgw4MPk0h5l6gf9xv-40" value="Outcome: Computer wins." style="text;html=1;align=center;verticalAlign=middle;resizable=0;points=[];autosize=1;fillColor=#dae8fc;strokeColor=#6c8ebf;fontColor=#000000;" parent="1" vertex="1">
                    <mxGeometry x="65" y="1070" width="150" height="20" as="geometry"/>
                </mxCell>
                <mxCell id="fyFqgw4MPk0h5l6gf9xv-41" value="Lose" style="rounded=1;whiteSpace=wrap;html=1;fillColor=#f8cecc;strokeColor=#b85450;fontColor=#050505;" parent="1" vertex="1">
                    <mxGeometry x="790" y="450" width="90" height="30" as="geometry"/>
                </mxCell>
                <mxCell id="fyFqgw4MPk0h5l6gf9xv-42" value="Win" style="rounded=1;whiteSpace=wrap;html=1;fillColor=#d5e8d4;strokeColor=#82b366;fontColor=#000000;" parent="1" vertex="1">
                    <mxGeometry x="730" y="360" width="90" height="30" as="geometry"/>
                </mxCell>
                <mxCell id="fyFqgw4MPk0h5l6gf9xv-43" style="edgeStyle=orthogonalEdgeStyle;rounded=0;orthogonalLoop=1;jettySize=auto;html=1;exitX=1;exitY=0.5;exitDx=0;exitDy=0;entryX=0;entryY=0.5;entryDx=0;entryDy=0;" parent="1" source="fyFqgw4MPk0h5l6gf9xv-45" target="fyFqgw4MPk0h5l6gf9xv-42" edge="1">
                    <mxGeometry relative="1" as="geometry">
                        <Array as="points">
                            <mxPoint x="600" y="375"/>
                        </Array>
                    </mxGeometry>
                </mxCell>
                <mxCell id="fyFqgw4MPk0h5l6gf9xv-44" style="edgeStyle=orthogonalEdgeStyle;rounded=0;orthogonalLoop=1;jettySize=auto;html=1;exitX=1;exitY=0.5;exitDx=0;exitDy=0;" parent="1" source="fyFqgw4MPk0h5l6gf9xv-45" target="fyFqgw4MPk0h5l6gf9xv-58" edge="1">
                    <mxGeometry relative="1" as="geometry">
                        <Array as="points">
                            <mxPoint x="600" y="415"/>
                        </Array>
                    </mxGeometry>
                </mxCell>
                <mxCell id="fyFqgw4MPk0h5l6gf9xv-45" value="&lt;span&gt;Does the user or &lt;br&gt;computer have a blackjack?&lt;/span&gt;&lt;br&gt;&lt;span&gt;(ace + 10)&lt;/span&gt;" style="rhombus;whiteSpace=wrap;html=1;" parent="1" vertex="1">
                    <mxGeometry x="430" y="370" width="170" height="80" as="geometry"/>
                </mxCell>
                <mxCell id="fyFqgw4MPk0h5l6gf9xv-46" value="No" style="text;html=1;align=center;verticalAlign=middle;resizable=0;points=[];autosize=1;" parent="1" vertex="1">
                    <mxGeometry x="475" y="450" width="30" height="20" as="geometry"/>
                </mxCell>
                <mxCell id="fyFqgw4MPk0h5l6gf9xv-47" value="User has blackjack" style="text;html=1;align=center;verticalAlign=middle;resizable=0;points=[];autosize=1;" parent="1" vertex="1">
                    <mxGeometry x="602.5" y="350" width="120" height="20" as="geometry"/>
                </mxCell>
                <mxCell id="fyFqgw4MPk0h5l6gf9xv-48" value="Yes" style="text;html=1;align=center;verticalAlign=middle;resizable=0;points=[];autosize=1;" parent="1" vertex="1">
                    <mxGeometry x="596.25" y="490" width="40" height="20" as="geometry"/>
                </mxCell>
                <mxCell id="fyFqgw4MPk0h5l6gf9xv-49" value="No" style="text;html=1;align=center;verticalAlign=middle;resizable=0;points=[];autosize=1;" parent="1" vertex="1">
                    <mxGeometry x="760" y="460" width="30" height="20" as="geometry"/>
                </mxCell>
                <mxCell id="fyFqgw4MPk0h5l6gf9xv-50" style="edgeStyle=orthogonalEdgeStyle;rounded=0;orthogonalLoop=1;jettySize=auto;html=1;exitX=0.5;exitY=1;exitDx=0;exitDy=0;entryX=0.5;entryY=0;entryDx=0;entryDy=0;" parent="1" source="fyFqgw4MPk0h5l6gf9xv-51" target="fyFqgw4MPk0h5l6gf9xv-57" edge="1">
                    <mxGeometry relative="1" as="geometry"/>
                </mxCell>
                <mxCell id="fyFqgw4MPk0h5l6gf9xv-51" value="&lt;span&gt;Computer plays, if score is less&lt;/span&gt;&lt;br&gt;&lt;span&gt;&amp;nbsp;than 17, keep drawing cards.&lt;/span&gt;" style="rounded=1;whiteSpace=wrap;html=1;" parent="1" vertex="1">
                    <mxGeometry x="427.5" y="730" width="175" height="60" as="geometry"/>
                </mxCell>
                <mxCell id="fyFqgw4MPk0h5l6gf9xv-52" style="edgeStyle=orthogonalEdgeStyle;rounded=0;orthogonalLoop=1;jettySize=auto;html=1;exitX=1;exitY=0.5;exitDx=0;exitDy=0;entryX=1;entryY=0.5;entryDx=0;entryDy=0;" parent="1" source="fyFqgw4MPk0h5l6gf9xv-53" target="fyFqgw4MPk0h5l6gf9xv-6" edge="1">
                    <mxGeometry relative="1" as="geometry">
                        <Array as="points">
                            <mxPoint x="1190" y="640"/>
                            <mxPoint x="1190" y="320"/>
                        </Array>
                    </mxGeometry>
                </mxCell>
                <mxCell id="fyFqgw4MPk0h5l6gf9xv-53" value="Draw another card" style="rounded=1;whiteSpace=wrap;html=1;" parent="1" vertex="1">
                    <mxGeometry x="670" y="610" width="120" height="60" as="geometry"/>
                </mxCell>
                <mxCell id="fyFqgw4MPk0h5l6gf9xv-54" value="Computer: [3, 6]" style="text;html=1;align=center;verticalAlign=middle;resizable=0;points=[];autosize=1;fillColor=#dae8fc;strokeColor=#6c8ebf;fontColor=#000000;" parent="1" vertex="1">
                    <mxGeometry x="235" y="730" width="100" height="20" as="geometry"/>
                </mxCell>
                <mxCell id="fyFqgw4MPk0h5l6gf9xv-55" style="edgeStyle=orthogonalEdgeStyle;rounded=0;orthogonalLoop=1;jettySize=auto;html=1;exitX=0.5;exitY=1;exitDx=0;exitDy=0;entryX=0.5;entryY=0;entryDx=0;entryDy=0;fillColor=#f8cecc;strokeColor=#b85450;" parent="1" source="fyFqgw4MPk0h5l6gf9xv-57" target="fyFqgw4MPk0h5l6gf9xv-19" edge="1">
                    <mxGeometry relative="1" as="geometry"/>
                </mxCell>
                <mxCell id="fyFqgw4MPk0h5l6gf9xv-56" style="edgeStyle=orthogonalEdgeStyle;rounded=0;orthogonalLoop=1;jettySize=auto;html=1;exitX=1;exitY=0.5;exitDx=0;exitDy=0;entryX=0;entryY=0.5;entryDx=0;entryDy=0;fillColor=#d5e8d4;strokeColor=#82b366;" parent="1" source="fyFqgw4MPk0h5l6gf9xv-57" target="fyFqgw4MPk0h5l6gf9xv-60" edge="1">
                    <mxGeometry relative="1" as="geometry"/>
                </mxCell>
                <mxCell id="fyFqgw4MPk0h5l6gf9xv-57" value="Has computer gone&amp;nbsp;&lt;br&gt;over 21?" style="rhombus;whiteSpace=wrap;html=1;" parent="1" vertex="1">
                    <mxGeometry x="436.25" y="840" width="157.5" height="80" as="geometry"/>
                </mxCell>
                <mxCell id="fyFqgw4MPk0h5l6gf9xv-58" value="Lose" style="rounded=1;whiteSpace=wrap;html=1;fillColor=#f8cecc;strokeColor=#b85450;fontColor=#000000;" parent="1" vertex="1">
                    <mxGeometry x="730" y="400" width="90" height="30" as="geometry"/>
                </mxCell>
                <mxCell id="fyFqgw4MPk0h5l6gf9xv-59" value="Computer has blackjack" style="text;html=1;align=center;verticalAlign=middle;resizable=0;points=[];autosize=1;" parent="1" vertex="1">
                    <mxGeometry x="590" y="414" width="140" height="20" as="geometry"/>
                </mxCell>
                <mxCell id="fyFqgw4MPk0h5l6gf9xv-60" value="Win" style="rounded=1;whiteSpace=wrap;html=1;fillColor=#d5e8d4;strokeColor=#82b366;fontColor=#000000;" parent="1" vertex="1">
                    <mxGeometry x="650" y="865" width="80" height="30" as="geometry"/>
                </mxCell>
                <mxCell id="fyFqgw4MPk0h5l6gf9xv-61" value="Yes" style="text;html=1;align=center;verticalAlign=middle;resizable=0;points=[];autosize=1;" parent="1" vertex="1">
                    <mxGeometry x="600" y="850" width="40" height="20" as="geometry"/>
                </mxCell>
                <mxCell id="fyFqgw4MPk0h5l6gf9xv-62" value="No" style="text;html=1;align=center;verticalAlign=middle;resizable=0;points=[];autosize=1;" parent="1" vertex="1">
                    <mxGeometry x="527.5" y="930" width="30" height="20" as="geometry"/>
                </mxCell>
                <mxCell id="fyFqgw4MPk0h5l6gf9xv-63" style="edgeStyle=orthogonalEdgeStyle;rounded=0;orthogonalLoop=1;jettySize=auto;html=1;exitX=0.5;exitY=1;exitDx=0;exitDy=0;entryX=1;entryY=0.25;entryDx=0;entryDy=0;fillColor=#d5e8d4;strokeColor=#82b366;" parent="1" source="fyFqgw4MPk0h5l6gf9xv-65" target="fyFqgw4MPk0h5l6gf9xv-41" edge="1">
                    <mxGeometry relative="1" as="geometry">
                        <Array as="points">
                            <mxPoint x="965" y="458"/>
                        </Array>
                    </mxGeometry>
                </mxCell>
                <mxCell id="fyFqgw4MPk0h5l6gf9xv-64" style="edgeStyle=orthogonalEdgeStyle;rounded=0;orthogonalLoop=1;jettySize=auto;html=1;exitX=0.5;exitY=1;exitDx=0;exitDy=0;entryX=1;entryY=0;entryDx=0;entryDy=0;fillColor=#f8cecc;strokeColor=#b85450;" parent="1" source="fyFqgw4MPk0h5l6gf9xv-65" target="fyFqgw4MPk0h5l6gf9xv-14" edge="1">
                    <mxGeometry relative="1" as="geometry">
                        <Array as="points">
                            <mxPoint x="965" y="575"/>
                            <mxPoint x="559" y="575"/>
                        </Array>
                    </mxGeometry>
                </mxCell>
                <mxCell id="fyFqgw4MPk0h5l6gf9xv-65" value="If the ace counts &lt;br&gt;as a 1 instead of 11, are they still over 21?" style="rhombus;whiteSpace=wrap;html=1;" parent="1" vertex="1">
                    <mxGeometry x="880" y="465" width="170" height="90" as="geometry"/>
                </mxCell>
                <mxCell id="fyFqgw4MPk0h5l6gf9xv-66" value="Yes" style="text;html=1;align=center;verticalAlign=middle;resizable=0;points=[];autosize=1;" parent="1" vertex="1">
                    <mxGeometry x="910" y="440" width="40" height="20" as="geometry"/>
                </mxCell>
                <mxCell id="fyFqgw4MPk0h5l6gf9xv-67" value="No" style="text;html=1;align=center;verticalAlign=middle;resizable=0;points=[];autosize=1;" parent="1" vertex="1">
                    <mxGeometry x="977" y="563" width="30" height="20" as="geometry"/>
                </mxCell>
                <mxCell id="fyFqgw4MPk0h5l6gf9xv-68" value="Yes" style="text;html=1;align=center;verticalAlign=middle;resizable=0;points=[];autosize=1;" parent="1" vertex="1">
                    <mxGeometry x="807" y="510" width="40" height="20" as="geometry"/>
                </mxCell>
            </root>
        </mxGraphModel>
    </diagram>
</mxfile>